<svg width="16" height="16" fill="currentColor" class="bi bi-chat" xmlns="http://www.w3.org/2000/svg"><path d="M2.68 11.9a1 1 0 01.28.8 10.97 10.97 0 01-.4 2c1.4-.33 2.25-.7 2.64-.9a1 1 0 01.71-.07A8.06 8.06 0 008 14c4 0 7-2.8 7-6s-3-6-7-6-7 2.8-7 6a5.5 5.5 0 001.68 3.9zm-.5 3.9a21.68 21.68 0 01-.7.13c-.2.03-.36-.18-.28-.36a9.68 9.68 0 00.24-.64v-.01c.25-.72.46-1.55.53-2.32A6.5 6.5 0 010 8c0-3.87 3.58-7 8-7s8 3.13 8 7-3.58 7-8 7a9.06 9.06 0 01-2.35-.3c-.52.26-1.64.74-3.46 1.1z"/><path d="M7.97 3.89l3.67 3.63.01 4.2H4.3V7.55zm3.06-.12V6.2L9.81 5V3.76H10.73z" fill-rule="evenodd"/><path d="M7.54 3.46a.61.61 0 01.86 0l4.07 4.07c.25.28-.14.68-.43.43L7.97 3.89 3.9 7.96c-.29.3-.74-.15-.43-.43z" fill-rule="evenodd"/></svg>