<?xml version="1.0" encoding="UTF-8" standalone="no"?>
<svg
   width="16"
   height="16"
   fill="currentColor"
   class="bi bi-chat"
   version="1.1"
   id="svg8"
   sodipodi:docname="home-intent-white-house-sm.svg"
   inkscape:version="1.1 (c68e22c387, 2021-05-23)"
   xmlns:inkscape="http://www.inkscape.org/namespaces/inkscape"
   xmlns:sodipodi="http://sodipodi.sourceforge.net/DTD/sodipodi-0.dtd"
   xmlns="http://www.w3.org/2000/svg"
   xmlns:svg="http://www.w3.org/2000/svg">
  <defs
     id="defs12" />
  <sodipodi:namedview
     id="namedview10"
     pagecolor="#ffffff"
     bordercolor="#666666"
     borderopacity="1.0"
     inkscape:pageshadow="2"
     inkscape:pageopacity="0.0"
     inkscape:pagecheckerboard="0"
     showgrid="false"
     inkscape:zoom="52.75"
     inkscape:cx="6.4549763"
     inkscape:cy="8.0094787"
     inkscape:window-width="1920"
     inkscape:window-height="1016"
     inkscape:window-x="0"
     inkscape:window-y="27"
     inkscape:window-maximized="1"
     inkscape:current-layer="layer1" />
  <g
     inkscape:groupmode="layer"
     id="layer1"
     inkscape:label="House"
     style="display:inline">
    <g
       id="g1989"
       style="fill:#ffffff">
      <path
         d="m 7.97,3.89 3.67,3.63 0.01,4.2 H 4.3 V 7.55 Z M 11.03,3.77 V 6.2 L 9.81,5 V 3.76 h 0.92 z"
         fill-rule="evenodd"
         id="path4"
         style="fill:#ffffff" />
      <path
         d="m 7.54,3.46 a 0.61,0.61 0 0 1 0.86,0 l 4.07,4.07 c 0.25,0.28 -0.14,0.68 -0.43,0.43 L 7.97,3.89 3.9,7.96 C 3.61,8.26 3.16,7.81 3.47,7.53 Z"
         fill-rule="evenodd"
         id="path6"
         style="fill:#ffffff" />
    </g>
  </g>
  <path
     style="fill:#00ffeb;stroke:#ff32fe;stroke-width:0;stroke-linecap:round;stroke-linejoin:round;stroke-miterlimit:4;stroke-dasharray:none;stroke-opacity:0.87536597;opacity:0;fill-opacity:1"
     d="m 1.3027868,15.874209 c -0.065286,-0.0487 -0.108474,-0.129584 -0.108474,-0.20316 0,-0.03077 0.045967,-0.174088 0.1021497,-0.318477 C 1.6176968,14.527 1.9034518,13.409898 1.9634362,12.74517 L 1.9765953,12.599346 1.7858817,12.39446 C 1.0145986,11.56586 0.50072421,10.637397 0.21921617,9.563825 -0.00398915,8.7125985 -0.04361687,7.7889991 0.10575653,6.9194313 0.1802632,6.4856954 0.34626396,5.9419791 0.54009469,5.4968072 1.0724637,4.2741122 2.0216309,3.1813213 3.2379319,2.3907452 4.9360216,1.287014 7.0498235,0.81890594 9.1469194,1.0821812 c 2.8467686,0.3573913 5.2887366,2.065285 6.3132646,4.4154491 0.545584,1.251513 0.670888,2.6377043 0.35644,3.943128 -0.654202,2.7158947 -3.08426,4.8352207 -6.1957709,5.4035147 -0.5780683,0.10558 -0.8742865,0.129796 -1.6018958,0.130957 -0.6893526,0.0011 -0.90305,-0.01214 -1.3933649,-0.08632 C 6.3545033,14.847891 5.9991482,14.777205 5.7878523,14.722267 L 5.651534,14.686823 5.4181841,14.79543 c -0.9564768,0.445169 -2.1458723,0.794896 -3.6421949,1.070941 -0.3185978,0.05878 -0.403037,0.06018 -0.4732024,0.0078 z m 1.560512,-1.239324 C 3.685483,14.427834 4.417861,14.176233 5.0473636,13.884572 5.2011388,13.813325 5.3632241,13.745073 5.4075532,13.7329 c 0.147501,-0.0405 0.3639004,-0.02776 0.6264925,0.03688 0.3034419,0.0747 0.6647829,0.141396 1.0086083,0.186177 0.3806141,0.04957 1.5296787,0.0499 1.914692,5.46e-4 1.768682,-0.226725 3.228111,-0.91093 4.351093,-2.039865 0.522739,-0.52551 0.879336,-1.021403 1.166952,-1.622796 0.363721,-0.7605232 0.526007,-1.4682259 0.526007,-2.2938384 0,-0.7046742 -0.114581,-1.3029818 -0.372419,-1.9446721 C 13.73998,3.8428514 11.482535,2.2844567 8.7973956,2.0295785 8.3917609,1.9910749 7.6111456,1.9906652 7.2115755,2.0287461 5.48616,2.1931864 3.9353892,2.8799674 2.7792163,3.9916802 1.3992744,5.3185568 0.77653918,7.0726298 1.0626972,8.8266396 c 0.1831659,1.1227183 0.6777905,2.1070274 1.483751,2.9526824 0.2858312,0.299909 0.3725907,0.454916 0.4024775,0.71908 0.028994,0.256277 -0.1381545,1.25114 -0.324349,1.930509 -0.035934,0.131114 -0.065335,0.246066 -0.065335,0.25545 0,0.02553 0.017537,0.02268 0.3040571,-0.04948 z"
     id="path2363" />
  <path
     style="opacity:0;fill:#41d537;fill-opacity:1;stroke:none;stroke-width:0;stroke-linecap:round;stroke-linejoin:round;stroke-miterlimit:4;stroke-dasharray:none;stroke-opacity:0.875366"
     d="M 2.5849699,14.65121 C 2.7376777,14.142969 2.8775589,13.458516 2.9497467,12.866318 3.0110411,12.363488 2.9486169,12.1825 2.5747824,11.779173 2.1337435,11.30334 1.8638477,10.926756 1.6164347,10.441996 1.3110738,9.8436978 1.1147974,9.193283 1.0396925,8.5308057 1.0095404,8.2648438 1.0101103,7.6769452 1.0407584,7.4312796 1.146858,6.5808155 1.4406109,5.785055 1.9143633,5.0647312 2.4233729,4.2908002 3.157539,3.5928246 3.9905213,3.0909167 5.0656349,2.4431143 6.3301251,2.0730449 7.6450677,2.0213666 c 1.3940089,-0.054786 2.6808043,0.2088006 3.8430843,0.7872148 0.736147,0.3663474 1.300607,0.7748741 1.859198,1.3455917 0.464417,0.4744986 0.799592,0.9445387 1.079651,1.5140733 0.392887,0.7989824 0.556335,1.484037 0.556335,2.3317536 0,0.5181105 -0.0594,0.9499968 -0.195412,1.4206882 -0.19403,0.6714978 -0.563922,1.3798718 -1.026525,1.9658818 -0.190225,0.240971 -0.739935,0.791597 -0.985093,0.986735 -1.234354,0.982503 -2.766415,1.540312 -4.4066378,1.604416 -0.8236318,0.03219 -1.5423793,-0.03612 -2.2843601,-0.217106 -0.2099638,-0.05121 -0.3153045,-0.06712 -0.4460444,-0.06735 -0.2023646,-3.58e-4 -0.2986192,0.02936 -0.7008751,0.216392 C 4.4437659,14.139635 3.7742027,14.372151 3.0478408,14.56618 2.564396,14.69532 2.572145,14.693896 2.5849699,14.65121 Z"
     id="path3844" />
  <path
     style="opacity:0;fill:#41d537;fill-opacity:1;stroke:none;stroke-width:0;stroke-linecap:round;stroke-linejoin:round;stroke-miterlimit:4;stroke-dasharray:none;stroke-opacity:0.875366"
     d="M 2.5849699,14.65121 C 2.7376777,14.142969 2.8775589,13.458516 2.9497467,12.866318 3.0110411,12.363488 2.9486169,12.1825 2.5747824,11.779173 2.1337435,11.30334 1.8638477,10.926756 1.6164347,10.441996 1.3110738,9.8436978 1.1147974,9.193283 1.0396925,8.5308057 1.0095404,8.2648438 1.0101103,7.6769452 1.0407584,7.4312796 1.146858,6.5808155 1.4406109,5.785055 1.9143633,5.0647312 2.4233729,4.2908002 3.157539,3.5928246 3.9905213,3.0909167 5.0656349,2.4431143 6.3301251,2.0730449 7.6450677,2.0213666 c 1.3940089,-0.054786 2.6808043,0.2088006 3.8430843,0.7872148 0.736147,0.3663474 1.300607,0.7748741 1.859198,1.3455917 0.464417,0.4744986 0.799592,0.9445387 1.079651,1.5140733 0.392887,0.7989824 0.556335,1.484037 0.556335,2.3317536 0,0.5181105 -0.0594,0.9499968 -0.195412,1.4206882 -0.19403,0.6714978 -0.563922,1.3798718 -1.026525,1.9658818 -0.190225,0.240971 -0.739935,0.791597 -0.985093,0.986735 -1.234354,0.982503 -2.766415,1.540312 -4.4066378,1.604416 C 7.5460364,14.009911 6.8272889,13.941601 6.0853081,13.760615 5.8753443,13.7094 5.7700036,13.693494 5.6392637,13.693262 5.4368991,13.692904 5.3406445,13.722623 4.9383886,13.909654 4.4437659,14.139632 3.7742027,14.372148 3.0478408,14.566177 2.564396,14.695317 2.572145,14.693893 2.5849699,14.65121 Z M 11.658768,9.6646464 V 7.6041746 l 0.194313,0.190619 c 0.229542,0.2251783 0.288155,0.2602466 0.414662,0.2480909 0.181737,-0.017462 0.291689,-0.1523004 0.278042,-0.3409713 L 12.53769,7.59 11.785433,6.8375663 11.033175,6.0851325 V 4.9269215 3.7687106 l -0.173528,-0.012317 c -0.09544,-0.00677 -0.372692,-0.012317 -0.616114,-0.012317 H 9.8009479 V 4.2982591 4.8524425 L 9.0473934,4.1015543 C 8.20179,3.2589428 8.2282076,3.2789304 7.9620853,3.2804129 7.6781501,3.2819948 7.8458343,3.1325488 5.5104912,5.4653573 4.3298315,6.6447359 3.4127397,7.5754717 3.3920078,7.6153585 3.2508006,7.8870336 3.5858753,8.1870154 3.8409564,8.0172882 3.8815109,7.9903039 3.9978673,7.8859615 4.0995261,7.7854165 L 4.2843602,7.602607 v 2.0612557 2.0612553 h 3.6872038 3.687204 z"
     id="path3883" />
  <path
     style="opacity:0;fill:#41d537;fill-opacity:1;stroke:none;stroke-width:0;stroke-linecap:round;stroke-linejoin:round;stroke-miterlimit:4;stroke-dasharray:none;stroke-opacity:0.875366"
     d="m 1.300756,15.875103 c -0.063699,-0.0501 -0.1064432,-0.132047 -0.1064432,-0.204054 0,-0.03077 0.045998,-0.174088 0.1022173,-0.318477 C 1.5768307,14.632676 1.8255102,13.704827 1.933411,12.976303 1.990797,12.588846 1.9988231,12.622617 1.7989607,12.410594 0.64931354,11.190993 0.01682124,9.6180209 0.01783776,7.9810427 0.01796725,7.7725118 0.02715302,7.5123223 0.03825058,7.4028436 0.23679145,5.4442152 1.3390797,3.6757682 3.1090047,2.4763047 3.4616787,2.2373005 3.6766997,2.1119832 4.0705204,1.9159193 5.6162064,1.146399 7.4134298,0.85777764 9.2079972,1.0908768 10.524851,1.2619249 11.794631,1.736875 12.867995,2.4598666 c 1.782969,1.2009628 2.895467,2.9784871 3.093659,4.942977 0.02566,0.2543422 0.026,0.9386142 5.86e-4,1.1848341 -0.131327,1.2724131 -0.617926,2.4341423 -1.449139,3.4597423 -1.244056,1.534992 -3.180192,2.581134 -5.2948642,2.860948 -0.4838914,0.06403 -0.8648292,0.08324 -1.4246279,0.07186 -0.7235814,-0.01472 -1.2685118,-0.08099 -1.8822599,-0.228921 l -0.2592675,-0.06249 -0.2342669,0.108501 c -0.9251014,0.428461 -2.0915659,0.776653 -3.4846671,1.040181 -0.4703436,0.08897 -0.56029,0.09432 -0.6323911,0.03761 z m 1.6666389,-1.267661 c 0.7980442,-0.206622 1.4787691,-0.443279 2.0761704,-0.721789 0.1516861,-0.07072 0.3137714,-0.138995 0.3601896,-0.15173 0.1573585,-0.04317 0.3645067,-0.02955 0.6720745,0.04419 0.6671558,0.159959 1.0217122,0.203638 1.756454,0.216384 0.6117915,0.01061 0.8758252,-0.0034 1.3525507,-0.07196 1.1974529,-0.172114 2.2942179,-0.597956 3.2420519,-1.258791 0.301742,-0.210377 0.593442,-0.458158 0.891152,-0.756977 0.299678,-0.300795 0.486621,-0.523041 0.701262,-0.833688 C 15.311875,9.2023514 15.337457,6.9110803 14.0868,5.0278011 13.845238,4.6640645 13.64211,4.4175922 13.308967,4.0840047 12.764466,3.5387774 12.180391,3.1217731 11.478673,2.7772547 10.855045,2.4710756 10.120491,2.2327872 9.4407583,2.1161577 8.8891454,2.0215113 8.7247687,2.0094615 7.9905213,2.0098466 7.3653604,2.0101745 7.2540609,2.0149646 6.9668246,2.0539047 5.4829022,2.2550774 4.2279755,2.7803027 3.1680482,3.6438095 2.9047329,3.8583283 2.4378002,4.3275084 2.2381342,4.5781991 1.2321072,5.8413162 0.81935126,7.335047 1.0632482,8.8300171 c 0.1803644,1.1055463 0.6874182,2.1161309 1.4748293,2.9394119 0.124153,0.129809 0.2479115,0.273861 0.2750188,0.320116 0.071278,0.121627 0.1240588,0.287838 0.1367327,0.430582 0.023676,0.266661 -0.1425388,1.242116 -0.3252523,1.908784 -0.035934,0.131114 -0.065335,0.246066 -0.065335,0.25545 0,0.02703 0.024473,0.02242 0.4081532,-0.07692 z"
     id="path3996" />
</svg>
